<svg width="196" height="160" viewBox="0 0 196 160" fill="none" xmlns="http://www.w3.org/2000/svg">
<path d="M185.173 149.175H10.6575V11.0156H185.173V149.175ZM11.5268 148.087H184.086V11.8859H11.5268V148.087Z" fill="black"/>
<path d="M65.859 66.2792H10.8749V11.2332H65.859V66.2792ZM11.0922 66.2792H65.6418V11.6683H11.0922V66.2792Z" fill="black"/>
<path d="M65.859 57.1411H11.0922V57.3587H65.859V57.1411Z" fill="black"/>
<path d="M65.859 48.0029H11.0922V48.2205H65.859V48.0029Z" fill="black"/>
<path d="M65.859 38.865H11.0922V39.0825H65.859V38.865Z" fill="black"/>
<path d="M65.859 29.7268H11.0922V29.9444H65.859V29.7268Z" fill="black"/>
<path d="M65.859 20.5889H11.0922V20.8065H65.859V20.5889Z" fill="black"/>
<path d="M56.9486 11.4507H56.7313V66.2791H56.9486V11.4507Z" fill="black"/>
<path d="M47.8208 11.4507H47.6035V66.2791H47.8208V11.4507Z" fill="black"/>
<path d="M38.6929 11.4507H38.4756V66.2791H38.6929V11.4507Z" fill="black"/>
<path d="M29.5652 11.4507H29.3478V66.2791H29.5652V11.4507Z" fill="black"/>
<path d="M20.4373 11.4507H20.22V66.2791H20.4373V11.4507Z" fill="black"/>
<path d="M120.843 66.2792H65.859V11.2332H120.843V66.2792ZM66.0764 66.2792H120.626V11.6683H66.0764V66.2792Z" fill="black"/>
<path d="M120.626 57.1411H65.859V57.3587H120.626V57.1411Z" fill="black"/>
<path d="M120.626 48.0029H65.859V48.2205H120.626V48.0029Z" fill="black"/>
<path d="M120.626 38.865H65.859V39.0825H120.626V38.865Z" fill="black"/>
<path d="M120.626 29.7268H65.859V29.9444H120.626V29.7268Z" fill="black"/>
<path d="M120.626 20.5889H65.859V20.8065H120.626V20.5889Z" fill="black"/>
<path d="M111.715 11.4507H111.498V66.2791H111.715V11.4507Z" fill="black"/>
<path d="M102.588 11.4507H102.37V66.2791H102.588V11.4507Z" fill="black"/>
<path d="M93.4598 11.4507H93.2425V66.2791H93.4598V11.4507Z" fill="black"/>
<path d="M84.332 11.4507H84.1147V66.2791H84.332V11.4507Z" fill="black"/>
<path d="M75.2041 11.4507H74.9868V66.2791H75.2041V11.4507Z" fill="black"/>
<path d="M65.859 102.831H38.4757H65.859V66.2791H11.0922V102.831V66.2791H65.859V102.831Z" fill="black"/>
<path d="M65.859 102.831H11.0922V103.049H65.859V102.831Z" fill="black"/>
<path d="M65.859 93.6934H11.0922V93.9109H65.859V93.6934Z" fill="black"/>
<path d="M65.859 84.5552H11.0922V84.7727H65.859V84.5552Z" fill="black"/>
<path d="M65.859 75.4172H11.0922V75.6348H65.859V75.4172Z" fill="black"/>
<path d="M56.9486 66.2791H56.7313V102.831H56.9486V66.2791Z" fill="black"/>
<path d="M47.8208 66.2791H47.6035V102.831H47.8208V66.2791Z" fill="black"/>
<path d="M38.6929 66.2791H38.4756V102.831H38.6929V66.2791Z" fill="black"/>
<path d="M29.5652 66.2791H29.3478V102.831H29.5652V66.2791Z" fill="black"/>
<path d="M20.4373 66.2791H20.22V102.831H20.4373V66.2791Z" fill="black"/>
<path d="M120.843 102.831H65.859V66.0615H120.843V102.831ZM66.0764 102.831H120.626V66.4966H66.0764V102.831Z" fill="black"/>
<path d="M120.626 102.831H65.859V103.049H120.626V102.831Z" fill="black"/>
<path d="M120.626 93.6934H65.859V93.9109H120.626V93.6934Z" fill="black"/>
<path d="M120.626 84.5552H65.859V84.7727H120.626V84.5552Z" fill="black"/>
<path d="M120.626 75.4172H65.859V75.6348H120.626V75.4172Z" fill="black"/>
<path d="M111.715 66.2791H111.498V102.831H111.715V66.2791Z" fill="black"/>
<path d="M102.588 66.2791H102.37V102.831H102.588V66.2791Z" fill="black"/>
<path d="M93.4598 66.2791H93.2425V102.831H93.4598V66.2791Z" fill="black"/>
<path d="M84.332 66.2791H84.1147V102.831H84.332V66.2791Z" fill="black"/>
<path d="M75.2041 66.2791H74.9868V102.831H75.2041V66.2791Z" fill="black"/>
<path d="M129.971 66.2792H120.626V11.2332H129.971V66.2792ZM120.843 66.2792H129.754V11.6683H120.843V66.2792Z" fill="black"/>
<path d="M129.754 57.1411H120.626V57.3587H129.754V57.1411Z" fill="black"/>
<path d="M129.754 48.0029H120.626V48.2205H129.754V48.0029Z" fill="black"/>
<path d="M129.754 38.865H120.626V39.0825H129.754V38.865Z" fill="black"/>
<path d="M129.754 29.7268H120.626V29.9444H129.754V29.7268Z" fill="black"/>
<path d="M129.754 20.5889H120.626V20.8065H129.754V20.5889Z" fill="black"/>
<path d="M129.971 11.4507H129.754V66.2791H129.971V11.4507Z" fill="black"/>
<path d="M129.971 102.831H120.626V66.0615H129.971V102.831ZM120.843 102.831H129.754V66.4966H120.843V102.831Z" fill="black"/>
<path d="M129.754 102.831H120.626V103.049H129.754V102.831Z" fill="black"/>
<path d="M129.754 93.6934H120.626V93.9109H129.754V93.6934Z" fill="black"/>
<path d="M129.754 84.5552H120.626V84.7727H129.754V84.5552Z" fill="black"/>
<path d="M129.754 75.4172H120.626V75.6348H129.754V75.4172Z" fill="black"/>
<path d="M129.971 66.2791H129.754V102.831H129.971V66.2791Z" fill="black"/>
<path d="M184.738 66.2792H129.754V11.2332H184.738V66.2792ZM129.971 66.2792H184.521V11.6683H129.971V66.2792Z" fill="black"/>
<path d="M184.521 57.1411H129.754V57.3587H184.521V57.1411Z" fill="black"/>
<path d="M184.521 48.0029H129.754V48.2205H184.521V48.0029Z" fill="black"/>
<path d="M184.521 38.865H129.754V39.0825H184.521V38.865Z" fill="black"/>
<path d="M184.521 29.7268H129.754V29.9444H184.521V29.7268Z" fill="black"/>
<path d="M184.521 20.5889H129.754V20.8065H184.521V20.5889Z" fill="black"/>
<path d="M175.61 11.4507H175.393V66.2791H175.61V11.4507Z" fill="black"/>
<path d="M166.482 11.4507H166.265V66.2791H166.482V11.4507Z" fill="black"/>
<path d="M157.355 11.4507H157.137V66.2791H157.355V11.4507Z" fill="black"/>
<path d="M148.227 11.4507H148.009V66.2791H148.227V11.4507Z" fill="black"/>
<path d="M139.099 11.4507H138.882V66.2791H139.099V11.4507Z" fill="black"/>
<path d="M184.738 102.831H157.137H184.521V66.2791H129.971V102.831H129.754V66.2791H184.738V102.831Z" fill="black"/>
<path d="M184.521 102.831H129.754V103.049H184.521V102.831Z" fill="black"/>
<path d="M184.521 93.6934H129.754V93.9109H184.521V93.6934Z" fill="black"/>
<path d="M184.521 84.5552H129.754V84.7727H184.521V84.5552Z" fill="black"/>
<path d="M184.521 75.4172H129.754V75.6348H184.521V75.4172Z" fill="black"/>
<path d="M175.61 66.2791H175.393V102.831H175.61V66.2791Z" fill="black"/>
<path d="M166.482 66.2791H166.265V102.831H166.482V66.2791Z" fill="black"/>
<path d="M157.355 66.2791H157.137V102.831H157.355V66.2791Z" fill="black"/>
<path d="M148.227 66.2791H148.009V102.831H148.227V66.2791Z" fill="black"/>
<path d="M139.099 66.2791H138.882V102.831H139.099V66.2791Z" fill="black"/>
<path d="M65.859 148.74H10.8749V102.832H65.859V148.74ZM11.0922 148.522H65.6418V103.049H11.0922V148.522Z" fill="black"/>
<path d="M65.859 148.522H11.0922V148.74H65.859V148.522Z" fill="black"/>
<path d="M65.859 139.384H11.0922V139.601H65.859V139.384Z" fill="black"/>
<path d="M65.859 130.246H11.0922V130.463H65.859V130.246Z" fill="black"/>
<path d="M65.859 121.108H11.0922V121.325H65.859V121.108Z" fill="black"/>
<path d="M65.859 111.969H11.0922V112.187H65.859V111.969Z" fill="black"/>
<path d="M56.9486 102.832H56.7313V148.522H56.9486V102.832Z" fill="black"/>
<path d="M47.8208 148.522C47.8208 145.693 47.8208 142.865 47.8208 139.384C47.8208 136.12 47.8208 133.074 47.8208 130.246C47.8208 127.635 47.8208 124.806 47.8208 121.108C47.8208 118.279 47.8208 115.451 47.8208 111.97C47.8208 108.924 47.8208 105.878 47.6035 102.832H47.8208C47.8208 105.878 48.0381 108.924 48.0381 111.97C48.0381 115.451 48.0381 118.279 48.0381 121.108C48.0381 124.806 48.0381 127.635 48.0381 130.246C48.0381 133.074 48.0381 136.12 48.0381 139.384C47.8208 142.865 47.8208 145.911 47.8208 148.522Z" fill="black"/>
<path d="M38.6929 102.832H38.4756V148.522H38.6929V102.832Z" fill="black"/>
<path d="M29.5652 102.832H29.3478V148.522H29.5652V102.832Z" fill="black"/>
<path d="M20.4373 102.832H20.22V148.522H20.4373V102.832Z" fill="black"/>
<path d="M120.843 148.74H65.859V102.832H120.843V148.74ZM66.0764 148.522H120.626V103.049H66.0764V148.522Z" fill="black"/>
<path d="M120.626 148.522H65.859V148.74H120.626V148.522Z" fill="black"/>
<path d="M120.626 139.384H65.859V139.601H120.626V139.384Z" fill="black"/>
<path d="M120.626 130.246H65.859V130.463H120.626V130.246Z" fill="black"/>
<path d="M120.626 121.108H65.859V121.325H120.626V121.108Z" fill="black"/>
<path d="M120.626 111.969H65.859V112.187H120.626V111.969Z" fill="black"/>
<path d="M111.715 102.832H111.498V148.522H111.715V102.832Z" fill="black"/>
<path d="M102.588 102.832H102.37V148.522H102.588V102.832Z" fill="black"/>
<path d="M93.4598 102.832H93.2425V148.522H93.4598V102.832Z" fill="black"/>
<path d="M84.332 102.832H84.1147V148.522H84.332V102.832Z" fill="black"/>
<path d="M75.2041 102.832H74.9868V148.522H75.2041V102.832Z" fill="black"/>
<path d="M129.971 148.74H120.626V102.832H129.971V148.74ZM120.843 148.522H129.754V103.049H120.843V148.522Z" fill="black"/>
<path d="M129.754 148.522H120.626V148.74H129.754V148.522Z" fill="black"/>
<path d="M129.754 139.384H120.626V139.601H129.754V139.384Z" fill="black"/>
<path d="M129.754 130.246H120.626V130.463H129.754V130.246Z" fill="black"/>
<path d="M129.754 121.108H120.626V121.325H129.754V121.108Z" fill="black"/>
<path d="M129.754 111.969H120.626V112.187H129.754V111.969Z" fill="black"/>
<path d="M129.971 102.832H129.754V148.522H129.971V102.832Z" fill="black"/>
<path d="M184.738 148.74H129.754V102.832H184.738V148.74ZM129.971 148.522H184.521V103.049H129.971V148.522Z" fill="black"/>
<path d="M184.521 148.522H129.754V148.74H184.521V148.522Z" fill="black"/>
<path d="M184.521 139.384H129.754V139.601H184.521V139.384Z" fill="black"/>
<path d="M184.521 130.246H129.754V130.463H184.521V130.246Z" fill="black"/>
<path d="M184.521 121.108H129.754V121.325H184.521V121.108Z" fill="black"/>
<path d="M184.521 111.969H129.754V112.187H184.521V111.969Z" fill="black"/>
<path d="M175.61 102.832H175.393V148.522H175.61V102.832Z" fill="black"/>
<path d="M166.482 102.832H166.265V148.522H166.482V102.832Z" fill="black"/>
<path d="M157.355 102.832H157.137V148.522H157.355V102.832Z" fill="black"/>
<path d="M148.227 102.832H148.009V148.522H148.227V102.832Z" fill="black"/>
<path d="M139.099 102.832H138.882V148.522H139.099V102.832Z" fill="black"/>
<path d="M1.52976 0.789551H0.443115V24.2874H1.52976V0.789551Z" fill="black"/>
<path d="M23.9146 0.789551H0.443115V1.87742H23.9146V0.789551Z" fill="black"/>
<path d="M1.52976 135.903H0.443115V159.401H1.52976V135.903Z" fill="black"/>
<path d="M23.9146 158.313H0.443115V159.401H23.9146V158.313Z" fill="black"/>
<path d="M195.387 0.789551H194.3V24.2874H195.387V0.789551Z" fill="black"/>
<path d="M195.387 0.789551H171.915V1.87742H195.387V0.789551Z" fill="black"/>
<path d="M195.387 135.903H194.3V159.401H195.387V135.903Z" fill="black"/>
<path d="M195.387 158.313H171.915V159.401H195.387V158.313Z" fill="black"/>
</svg>
