<svg width="48" height="48" viewBox="0 0 48 48" fill="none" xmlns="http://www.w3.org/2000/svg">
<path d="M33.9745 16.173C31.1213 14.3037 27.7761 13.3198 24.3327 13.3198C20.8892 13.3198 17.5441 14.3037 14.6909 16.173C14.3957 16.3697 14.1989 16.5665 13.9038 16.7633C13.6086 16.9601 13.3134 17.1568 13.1166 17.452C13.0183 17.5503 12.8216 17.6488 12.7232 17.7472C12.6248 17.8455 12.5264 17.9439 12.428 18.0423C12.3296 18.1407 12.2312 18.2391 12.1328 18.3374C12.0344 18.4358 11.9362 18.5342 11.8378 18.6326L11.7393 18.731C11.641 18.8294 11.5426 18.9277 11.5426 18.9277C11.4442 19.0261 11.4443 19.0261 11.3459 19.1245L11.2474 19.2229C11.149 19.3213 11.0506 19.4197 10.9522 19.5181L10.854 19.6164C10.7556 19.7148 10.7554 19.7148 10.657 19.8132C10.657 19.9116 10.5588 19.9116 10.5588 20.01C10.4604 20.1084 10.4604 20.2068 10.362 20.3051C10.362 20.3051 10.362 20.4035 10.2636 20.4035C10.1652 20.5019 10.1652 20.6003 10.0668 20.6987C10.0668 20.7971 9.96837 20.7971 9.96837 20.8954C9.86998 20.9938 9.87012 20.9938 9.87012 21.0922C9.77174 21.1906 9.77155 21.289 9.67316 21.289C9.67316 21.3874 9.57492 21.3874 9.57492 21.4858C9.47654 21.5842 9.47658 21.6826 9.3782 21.6826C9.3782 21.7809 9.27972 21.7809 9.27972 21.8793C9.18133 21.9777 9.18138 22.0761 9.083 22.1745L8.98452 22.2729C8.88613 22.3712 8.88618 22.4696 8.78779 22.568C8.68941 22.7648 8.59098 22.9616 8.49259 23.1583C8.39421 23.2567 8.39425 23.3551 8.29587 23.4535C8.19748 23.5519 8.19753 23.7486 8.09915 23.847C8.00076 23.9454 8.00081 24.1422 7.90242 24.2406C7.80404 24.5357 7.70561 24.8309 7.60722 25.126C7.50884 25.4212 7.4104 25.7163 7.31202 26.1099C7.31202 26.2083 7.31192 26.2082 7.21354 26.3066C7.21354 26.405 7.1153 26.5034 7.1153 26.6018C7.1153 26.7002 7.01681 26.8969 7.01681 26.9953C7.01681 27.0937 6.91857 27.2905 6.91857 27.3889V27.4872C6.91857 27.5856 6.91848 27.684 6.82009 27.7824C6.82009 27.8808 6.82009 27.9792 6.82009 27.9792C6.82009 28.0776 6.82009 28.176 6.82009 28.176C6.82009 28.2743 6.82009 28.3727 6.82009 28.4711C6.82009 28.5695 6.82009 28.6679 6.82009 28.7662V28.8647C6.82009 28.963 6.82009 29.0614 6.82009 29.2582C6.82009 29.3565 6.82009 29.4549 6.82009 29.4549C6.82009 29.5533 6.82009 29.5533 6.82009 29.6517V29.7501C3.08146 26.6018 0.916992 22.0761 0.916992 17.0585C0.916992 7.90865 8.29592 0.529785 17.4457 0.529785C19.807 0.529785 21.9715 1.02167 24.136 1.90714C24.2343 1.90714 24.3325 2.00556 24.4309 2.00556C24.5293 2.00556 24.6277 2.10392 24.7261 2.10392C24.8245 2.10392 24.9229 2.20228 25.0213 2.20228C25.1197 2.20228 25.2181 2.3007 25.3165 2.3007C25.4149 2.3007 25.5133 2.39906 25.6117 2.39906C26.0053 2.59583 26.3003 2.79262 26.6938 3.08777C26.7922 3.08777 26.7922 3.18613 26.8905 3.18613C27.0873 3.28452 27.1857 3.38293 27.3825 3.5797C27.4808 3.67808 27.5794 3.67809 27.5794 3.77648C27.6778 3.87486 27.7761 3.87488 27.7761 3.97326C27.8745 4.07165 27.9729 4.0716 27.9729 4.16998C28.0713 4.26837 28.1696 4.26838 28.1696 4.36676C28.268 4.46515 28.3663 4.46516 28.3663 4.56355C28.5631 4.66193 28.6616 4.85873 28.76 4.95711C28.8584 5.0555 28.8583 5.05545 28.9567 5.15383C29.3503 5.54737 29.7438 6.03935 30.1373 6.43289C30.2357 6.53127 30.2356 6.62961 30.334 6.62961C30.4324 6.72799 30.4326 6.72801 30.531 6.82639C30.531 6.92478 30.6292 6.92479 30.6292 7.02317C30.7276 7.12156 30.7276 7.12157 30.8259 7.21995C31.4162 8.00703 31.8098 8.79408 32.3017 9.58116C32.3017 9.67954 32.4002 9.77798 32.4002 9.87636C32.4002 9.97475 32.4987 10.0731 32.4987 10.1715C32.4987 10.2699 32.5969 10.3683 32.5969 10.4666C32.6953 10.6634 32.7936 10.8602 32.7936 11.0569C32.892 11.2537 32.8922 11.4505 32.9906 11.6473C32.9906 11.7457 33.0888 11.844 33.0888 11.9424C33.0888 12.0408 33.1873 12.1392 33.1873 12.2376C33.1873 12.336 33.1872 12.4343 33.2856 12.4343V12.5327C33.2856 12.6311 33.2857 12.7295 33.384 12.7295C33.4824 12.9263 33.4825 13.1231 33.4825 13.3198C33.4825 13.4182 33.4824 13.5166 33.5808 13.615C33.6792 13.8118 33.6792 14.1069 33.6792 14.3037C33.6792 14.4021 33.6792 14.402 33.6792 14.5004C33.6792 14.5004 33.6792 14.5004 33.6792 14.5988C33.6792 14.894 33.7775 15.0907 33.7775 15.3859C33.8759 15.7794 33.8761 15.9762 33.9745 16.173Z" fill="#e5e5e590"/>
<path d="M40.7629 31.8164C40.1726 40.3759 32.9904 47.2628 24.2342 47.2628C15.3795 47.2628 8.19737 40.2775 7.70544 31.5212C7.70544 31.3245 7.70544 31.0293 7.70544 30.8325V30.7341C7.70544 30.5373 7.70544 30.439 7.70544 30.2422C7.70544 30.0454 7.70544 29.947 7.70544 29.7503C7.70544 29.6519 7.70544 29.4551 7.70544 29.3568C7.70544 29.2584 7.70544 29.16 7.70544 29.0616C7.70544 28.9632 7.70544 28.9632 7.70544 28.8648C7.70544 28.7664 7.70544 28.6681 7.70544 28.5697V28.4713C7.70544 28.3729 7.70544 28.2745 7.70544 28.1761C7.70544 28.0777 7.70544 28.0777 7.70544 27.9793C7.70544 27.881 7.70544 27.7826 7.70544 27.6842C7.70544 27.5858 7.70544 27.4874 7.70544 27.3891V27.2906C7.70544 27.1923 7.70554 27.0939 7.80393 26.9955C7.80393 26.8971 7.80402 26.7987 7.90241 26.7004C7.90241 26.602 8.00065 26.5036 8.00065 26.3068C8.00065 26.2084 8.09913 26.11 8.09913 26.0116C8.09913 25.9133 8.09898 25.9132 8.19737 25.8149C8.19737 25.7165 8.19747 25.7165 8.29585 25.6181C8.29585 25.5198 8.39433 25.4213 8.39433 25.3229V25.2246C8.39433 25.1262 8.49257 25.0278 8.49257 24.9294C8.49257 24.831 8.59105 24.7326 8.59105 24.7326C8.88621 24.044 9.08288 23.4536 9.47642 22.8633C9.57481 22.7649 9.67314 22.5682 9.67314 22.4698C9.77153 22.3714 9.87011 22.1746 9.87011 22.0762C9.96849 21.8795 10.0667 21.7811 10.1651 21.5843C10.2635 21.4859 10.2636 21.3876 10.362 21.2892C10.4604 21.1908 10.5588 21.0924 10.5588 20.994C10.5588 20.8956 10.657 20.8956 10.657 20.8956C10.7554 20.7972 10.7556 20.7973 10.854 20.6989C10.854 20.6005 10.9523 20.6005 11.0507 20.5021C11.0507 20.4037 11.1489 20.4037 11.1489 20.3053C11.1489 20.2069 11.2474 20.2069 11.2474 20.1085C11.3458 20.0102 11.4442 19.9118 11.5426 19.8134C11.641 19.715 11.7394 19.6166 11.8378 19.4198C11.9362 19.3214 12.0344 19.2231 12.1328 19.1247C12.1328 19.1247 12.1329 19.0263 12.2313 19.0263C12.3296 18.9279 12.4281 18.8296 12.5265 18.7312C12.5265 18.7312 12.5263 18.7312 12.6247 18.7312C12.7231 18.6328 12.8215 18.5344 12.9199 18.436C13.0183 18.3376 13.2151 18.1409 13.4118 18.0425C13.707 24.2407 17.3473 29.9471 22.8569 32.8002C23.152 32.997 23.4472 33.0954 23.8407 33.2922C26.1036 34.276 28.4648 34.7679 30.9244 34.7679C31.2196 34.7679 31.6131 34.7679 31.9083 34.7679C32.0066 34.7679 32.105 34.7679 32.105 34.7679C32.2034 34.7679 32.3018 34.7679 32.4002 34.7679C32.4986 34.7679 32.597 34.7679 32.6954 34.7679C32.7938 34.7679 32.8922 34.7679 32.9906 34.7679C33.089 34.7679 33.1873 34.7679 33.1873 34.7679C33.2857 34.7679 33.3841 34.7679 33.4825 34.7679C33.5809 34.7679 33.6792 34.7679 33.6792 34.7679C33.7776 34.7679 33.876 34.7679 33.9744 34.7679C34.4664 34.6695 35.0565 34.5711 35.5485 34.3744C35.6468 34.3744 35.7452 34.3744 35.7452 34.276C35.8436 34.276 35.942 34.1776 36.0404 34.1776C36.1388 34.1776 36.2371 34.0792 36.2371 34.0792C36.3355 34.0792 36.4341 33.9809 36.4341 33.9809C36.5324 33.9809 36.6306 33.8824 36.729 33.8824C37.2209 33.6857 37.7129 33.4889 38.2048 33.2922C38.3032 33.2922 38.4016 33.1937 38.5 33.1937C38.5984 33.1937 38.6968 33.0954 38.7952 33.0954C38.8936 33.0954 38.992 32.997 39.0904 32.8986C39.1888 32.8002 39.2872 32.8002 39.3856 32.7018C40.0743 32.3083 40.3694 32.1115 40.7629 31.8164C40.7629 31.9148 40.7629 31.9148 40.7629 31.8164Z" fill="#e5e5e580"/>
<path d="M47.6499 17.2555C47.6499 22.5683 45.1903 27.3892 40.9597 30.5375C38.1065 32.702 34.6631 33.7842 31.1212 33.7842C31.0228 33.7842 30.8261 33.7842 30.7278 33.7842C30.6294 33.7842 30.4325 33.7842 30.3341 33.7842C30.2357 33.7842 30.1375 33.7842 30.0391 33.7842C29.9407 33.7842 29.9405 33.7842 29.8422 33.7842C29.7438 33.7842 29.7438 33.7842 29.6454 33.7842C29.547 33.7842 29.4486 33.7842 29.3502 33.7842C29.0551 33.7842 28.8585 33.6858 28.5633 33.6858C28.465 33.6858 28.268 33.6858 28.1697 33.5874C28.0713 33.5874 27.8746 33.5875 27.7762 33.4891C27.7762 33.4891 27.7761 33.4891 27.6777 33.4891C27.5793 33.4891 27.3827 33.3906 27.2843 33.3906C27.1859 33.3906 26.989 33.2923 26.8906 33.2923C26.6938 33.2923 26.5955 33.1939 26.4972 33.1939C26.3988 33.1939 26.2021 33.0955 26.1037 33.0955C26.0053 33.0955 25.8084 32.9971 25.71 32.9971C25.6116 32.9971 25.6117 32.8987 25.5133 32.8987C31.0229 30.0456 34.6632 24.4376 34.9584 18.141C34.9584 17.8458 34.9584 17.6491 34.9584 17.3539V17.1571C34.9584 16.862 34.9584 16.5668 34.9584 16.2717C34.9584 16.0749 34.9584 15.8781 34.9584 15.6813C34.9584 15.583 34.9584 15.4846 34.9584 15.3862C34.9584 15.2878 34.9584 15.1894 34.9584 15.0911C34.9584 14.9927 34.9584 14.8943 34.9584 14.7959C34.9584 14.6975 34.9584 14.5991 34.9584 14.5007C34.9584 14.5007 34.9584 14.5007 34.9584 14.4023C34.9584 14.304 34.9584 14.2056 34.9584 14.1072C34.9584 14.0088 34.9584 14.0088 34.9584 13.9104C34.9584 13.812 34.9584 13.812 34.9584 13.7136C34.9584 13.6153 34.9584 13.6152 34.9584 13.5169C34.9584 13.4185 34.9583 13.3201 34.8599 13.2217C34.6631 12.3363 34.3679 11.4508 34.0728 10.6637C34.0728 10.5653 33.9745 10.467 33.9745 10.3686C33.9745 10.2702 33.876 10.1718 33.876 10.0734C33.876 9.975 33.7776 9.87663 33.7776 9.77824C33.7776 9.67986 33.6793 9.58148 33.6793 9.4831C33.5809 9.38471 33.581 9.28634 33.4826 9.18795C33.4826 9.08957 33.3841 8.9912 33.3841 8.89281C33.2857 8.79443 33.2858 8.69599 33.1874 8.59761C33.089 8.49922 33.089 8.40085 32.9907 8.30247C32.9907 8.20408 32.8922 8.10568 32.8922 8.10568C32.6954 7.81053 32.4985 7.51541 32.3018 7.22025C32.3018 7.12187 32.2035 7.12186 32.2035 7.02347C32.1051 6.92509 32.1052 6.82669 32.0068 6.82669C31.9084 6.72831 31.81 6.53157 31.7116 6.43319C31.6132 6.3348 31.6133 6.23637 31.5149 6.13798C31.5149 6.0396 31.4164 6.03965 31.4164 5.94126C31.2196 5.74449 31.1213 5.54772 30.9245 5.44934C30.8261 5.35095 30.8261 5.35094 30.7278 5.25255C30.531 5.05578 30.3341 4.85898 30.1374 4.66221C30.039 4.56382 30.039 4.56387 29.9406 4.46549C29.8422 4.3671 29.8423 4.36709 29.7439 4.2687C29.6455 4.17032 29.5471 4.07192 29.4487 4.07192C29.3503 3.97354 29.3504 3.97352 29.252 3.87514C29.0552 3.77675 28.9568 3.58002 28.7601 3.48164C28.6617 3.38325 28.5633 3.38324 28.5633 3.28485C28.3666 3.08808 28.0712 2.89131 27.8745 2.79293C27.7761 2.69454 27.5794 2.59617 27.481 2.49779C27.3826 2.3994 27.2842 2.39939 27.1858 2.301C27.0874 2.301 26.9891 2.20258 26.9891 2.20258C26.8907 2.1042 26.7923 2.10425 26.6939 2.00586C26.5955 2.00586 26.5955 1.90744 26.4972 1.90744C26.3988 1.80905 26.3003 1.80904 26.202 1.71066C27.9729 1.02196 29.9406 0.726807 31.9083 0.726807C40.2711 0.726807 47.6499 8.20412 47.6499 17.2555Z" fill="#e5e5e599"/>
</svg>
