<svg
        xmlns="http://www.w3.org/2000/svg"
        xmlns:xlink="http://www.w3.org/1999/xlink"
        width="95px" height="93px">
    <path fill-rule="evenodd"  opacity="0.9" fill="none" stroke="#E5E7E9FF" stroke-width="2%"
          d="M93.073,86.364 C93.754,86.967 94.096,87.766 94.096,88.760 C94.096,89.703 93.754,90.488 93.073,91.117 C92.390,91.745 91.236,92.059 89.610,92.059 L65.296,92.059 C63.722,92.059 62.581,91.745 61.873,91.117 C61.165,90.488 60.811,89.703 60.811,88.760 C60.811,87.766 61.152,86.967 61.834,86.364 C62.515,85.763 64.373,86.000 65.1000,86.000 L76.1000,86.000 L76.1000,9.000 L17.1000,67.1000 L17.1000,86.000 L28.1000,86.000 C30.574,86.000 31.801,85.763 32.484,86.364 C33.165,86.967 33.506,87.766 33.506,88.760 C33.506,89.703 33.165,90.488 32.484,91.117 C31.801,91.745 30.674,92.059 29.100,92.059 L4.707,92.059 C3.133,92.059 2.004,91.745 1.323,91.117 C0.641,90.488 0.300,89.703 0.300,88.760 C0.300,87.766 0.641,86.967 1.323,86.364 C2.004,85.763 3.426,86.000 4.1000,86.000 L9.1000,86.000 L10.294,6.751 L6.123,6.751 C4.550,6.751 3.421,6.451 2.740,5.848 C2.057,5.247 1.717,4.448 1.717,3.452 C1.717,2.458 2.057,1.659 2.740,1.056 C3.421,0.455 4.550,0.153 6.123,0.153 L17.1000,-0.000 L46.1000,29.000 L76.1000,-0.000 L88.194,0.153 C89.820,0.153 90.974,0.455 91.656,1.056 C92.337,1.659 92.679,2.458 92.679,3.452 C92.679,4.448 92.337,5.247 91.656,5.848 C90.974,6.451 89.820,6.751 88.194,6.751 L84.102,6.751 L84.000,86.000 L89.1000,86.000 C91.625,86.000 92.390,85.763 93.073,86.364 ZM17.1000,9.1000 L17.1000,58.000 L41.1000,34.000 L17.1000,9.1000 Z"/>
</svg>