<svg
        xmlns="http://www.w3.org/2000/svg"
        xmlns:xlink="http://www.w3.org/1999/xlink"
        width="4752px" height="1382px">
    <path fill-rule="evenodd"  stroke-width="16px" stroke="rgb(255, 255, 255)" fill-opacity="0" fill="rgb(255, 255, 255)"
          d="M4720.001,637.959 L4710.376,655.363 C4705.126,664.577 4699.876,673.790 4695.501,685.051 C4689.376,699.384 4685.001,706.550 4678.876,722.930 C4669.251,746.476 4659.626,781.283 4659.626,781.283 C4657.876,787.426 4653.501,802.782 4643.876,802.782 C4639.501,802.782 4636.876,801.758 4633.376,798.687 C4628.126,793.568 4624.626,786.402 4621.126,777.188 C4620.251,774.117 4618.501,767.975 4618.501,767.975 L4253.626,767.975 C4248.376,767.975 4241.376,767.975 4235.251,767.975 L4214.251,767.975 C4202.876,767.975 4200.251,770.022 4195.876,767.975 C4188.876,765.927 4188.876,760.808 4191.501,755.690 C4195.001,747.500 4215.126,746.476 4223.001,745.452 C4243.126,744.429 4252.751,742.381 4258.876,736.239 C4269.376,724.977 4270.251,680.956 4270.251,656.387 L4274.626,184.441 C4274.626,162.943 4280.751,115.851 4256.251,94.352 C4250.126,88.209 4232.626,86.162 4226.501,83.091 C4222.126,81.043 4198.501,81.043 4205.501,63.640 C4208.126,58.521 4216.876,57.497 4222.126,57.497 C4222.126,57.497 4239.626,57.497 4241.376,57.497 L4280.751,57.497 L4305.251,58.521 L4534.501,58.521 C4552.001,58.521 4569.501,63.640 4588.751,61.592 L4615.001,58.521 C4622.001,55.450 4634.251,41.117 4643.001,45.212 C4649.126,48.284 4652.626,56.473 4650.001,63.640 C4649.126,66.711 4637.751,96.399 4636.001,101.518 C4632.501,112.779 4629.876,124.040 4625.501,141.444 C4616.751,172.156 4614.126,187.513 4611.501,219.249 C4610.626,224.367 4607.126,227.438 4601.876,223.344 C4596.626,219.249 4594.001,202.869 4591.376,185.465 C4587.001,158.848 4587.001,148.610 4583.501,141.444 C4569.501,111.756 4537.126,106.637 4509.126,103.566 C4493.376,102.542 4428.626,97.423 4386.626,101.518 L4382.251,106.637 C4378.751,115.851 4377.876,123.017 4377.876,130.183 L4372.626,325.718 C4372.626,330.836 4371.751,340.050 4372.626,347.216 C4373.501,356.430 4372.626,366.667 4377.876,370.762 C4382.251,373.834 4393.626,370.762 4393.626,370.762 C4416.376,370.762 4476.751,383.047 4496.001,352.335 L4505.626,336.979 C4510.001,329.813 4510.001,329.813 4513.501,320.599 C4519.626,304.219 4523.126,293.982 4537.126,298.077 C4543.251,300.124 4543.251,307.290 4543.251,318.552 C4543.251,328.789 4542.376,328.789 4540.626,340.050 C4538.876,353.359 4538.001,359.501 4537.126,379.976 C4535.376,409.665 4536.251,444.472 4536.251,461.876 L4536.251,502.825 C4536.251,507.944 4535.376,521.253 4531.876,523.300 C4522.251,527.395 4521.376,518.181 4521.376,518.181 C4515.251,488.493 4510.001,428.092 4472.376,414.783 C4461.876,410.688 4426.876,410.688 4381.376,414.783 C4376.126,420.926 4373.501,420.926 4373.501,433.211 L4373.501,453.686 C4373.501,469.042 4371.751,477.232 4371.751,494.635 L4371.751,519.205 C4371.751,532.514 4372.626,545.822 4372.626,559.131 L4372.626,610.318 C4372.626,630.793 4363.001,712.693 4385.751,732.144 C4412.876,754.666 4561.626,726.001 4591.376,713.716 C4611.501,705.526 4643.001,690.170 4658.751,673.790 C4665.751,666.624 4673.626,657.410 4691.126,633.864 C4696.376,626.698 4701.626,619.532 4706.001,613.389 C4708.626,608.271 4710.376,607.247 4713.876,606.223 C4718.251,605.200 4720.001,605.200 4723.501,609.295 C4729.626,616.461 4722.626,632.841 4720.001,637.959 ZM4020.001,86.162 C4006.876,90.257 3950.876,84.115 3937.751,99.471 C3922.876,116.874 3920.251,169.085 3920.251,192.631 L3920.251,684.028 C3920.251,771.046 3916.751,780.260 3910.626,781.283 C3904.501,781.283 3903.626,780.260 3894.876,771.046 L3875.626,749.547 L3805.626,656.387 C3796.001,644.102 3790.751,637.959 3787.251,632.841 C3786.376,630.793 3783.751,624.651 3781.126,620.556 C3778.501,616.461 3773.251,611.342 3771.501,609.295 L3517.751,290.911 L3512.501,598.033 C3511.626,627.722 3506.376,699.384 3540.501,722.930 C3551.001,732.144 3564.126,732.144 3585.126,734.191 C3591.251,734.191 3601.751,735.215 3608.751,737.262 C3618.376,740.334 3623.626,745.452 3621.876,755.690 C3620.126,764.903 3615.751,765.927 3605.251,766.951 C3597.376,767.975 3596.501,767.975 3585.126,767.975 L3411.001,767.975 C3399.626,767.975 3389.126,767.975 3377.751,767.975 L3363.751,767.975 C3352.376,767.975 3341.876,767.975 3335.751,762.856 C3333.126,760.808 3330.501,759.785 3330.501,753.642 C3330.501,747.500 3333.126,744.429 3335.751,743.405 C3343.626,738.286 3356.751,738.286 3391.751,737.262 C3411.876,737.262 3433.751,734.191 3449.501,718.835 C3472.251,695.289 3470.501,659.458 3471.376,632.841 L3476.626,518.181 C3476.626,515.110 3477.501,479.279 3477.501,475.184 L3477.501,323.670 C3477.501,283.744 3483.626,252.008 3456.501,210.035 C3430.251,169.085 3393.501,127.112 3362.876,104.589 C3331.376,81.043 3320.876,87.186 3278.876,85.138 C3278.876,85.138 3270.126,87.186 3270.126,70.806 C3270.126,56.473 3278.876,57.497 3278.876,57.497 L3404.001,57.497 C3504.626,57.497 3471.376,37.022 3548.376,139.397 L3846.751,536.609 C3850.251,541.727 3867.751,564.250 3874.751,564.250 L3874.751,541.727 C3874.751,526.371 3877.376,526.371 3877.376,518.181 C3877.376,514.086 3879.126,498.730 3879.126,493.612 L3879.126,210.035 C3879.126,185.465 3885.251,116.874 3854.626,96.399 C3850.251,93.328 3838.001,90.257 3810.001,87.186 C3797.751,86.162 3786.376,86.162 3785.501,86.162 C3779.376,86.162 3766.251,86.162 3762.751,78.996 C3760.126,74.901 3758.376,70.806 3760.126,64.663 C3762.751,55.450 3769.751,54.426 3778.501,54.426 L3796.876,54.426 L4012.126,54.426 C4022.626,54.426 4034.001,53.402 4039.251,64.663 C4042.751,71.830 4041.001,74.901 4038.376,80.020 C4035.751,86.162 4020.001,86.162 4020.001,86.162 ZM2948.126,768.998 C2839.626,808.924 2721.501,793.568 2615.626,693.241 C2522.001,604.176 2501.001,489.517 2510.626,382.024 C2520.251,266.341 2578.876,145.539 2679.501,83.091 C2704.876,67.735 2754.751,45.212 2790.626,40.094 C2873.751,27.809 3026.001,48.284 3117.876,173.180 C3182.626,260.198 3205.376,414.783 3182.626,507.944 C3149.376,646.149 3055.751,729.072 2948.126,768.998 ZM2968.251,129.159 C2914.001,77.972 2837.001,63.640 2784.501,80.020 C2753.001,90.257 2724.126,112.779 2698.751,148.610 C2623.501,252.008 2620.001,430.140 2640.126,525.348 C2659.376,612.366 2697.876,699.384 2788.001,740.334 C2836.126,762.856 2906.126,751.595 2953.376,716.787 C3041.751,652.292 3066.251,539.680 3070.626,451.638 C3074.126,370.762 3054.001,210.035 2968.251,129.159 ZM2490.501,192.631 C2490.501,194.679 2489.626,222.320 2488.751,226.415 C2488.751,233.581 2482.626,234.605 2480.876,229.486 C2462.501,191.607 2454.626,132.230 2403.876,108.684 C2369.751,92.304 2298.001,90.257 2255.126,96.399 C2249.876,100.494 2249.001,119.946 2249.001,128.135 L2246.376,161.919 L2246.376,597.010 C2246.376,608.271 2241.126,706.550 2271.751,731.120 C2283.126,740.334 2328.626,731.120 2347.001,737.262 C2352.251,737.262 2361.001,737.262 2362.751,749.547 C2363.626,756.713 2361.001,761.832 2356.626,764.903 C2353.126,766.951 2290.126,767.975 2277.001,767.975 L2058.251,767.975 C2048.626,767.975 2032.001,770.022 2025.001,766.951 C2022.376,765.927 2018.001,761.832 2018.001,757.737 C2018.001,751.595 2018.876,747.500 2021.501,743.405 C2025.001,738.286 2038.126,737.262 2038.126,737.262 C2064.376,728.049 2102.876,744.429 2120.376,726.001 C2140.501,704.503 2141.376,636.936 2141.376,615.437 L2141.376,191.607 C2141.376,179.323 2144.876,110.732 2130.001,100.494 C2117.751,92.304 2010.126,99.471 1997.876,106.637 C1960.251,129.159 1935.751,188.536 1919.126,217.201 C1914.751,222.320 1909.501,221.296 1910.376,213.106 C1911.251,204.916 1913.876,179.323 1913.876,179.323 L1918.251,143.492 C1919.126,133.254 1927.001,42.141 1943.626,29.856 C1950.626,24.737 1959.376,23.714 1968.126,35.999 C1970.751,40.094 1976.876,60.568 1981.251,63.640 L2381.126,55.450 C2406.501,54.426 2407.376,56.473 2427.501,55.450 C2435.376,55.450 2442.376,56.473 2452.001,50.331 C2459.876,43.165 2465.126,30.880 2474.751,30.880 C2481.751,29.856 2486.126,31.904 2489.626,38.046 C2493.126,44.189 2490.501,126.088 2490.501,133.254 L2490.501,192.631 ZM1966.376,678.909 C1967.251,681.980 1966.376,685.051 1966.376,685.051 C1926.126,752.618 1856.126,782.307 1808.001,772.070 C1710.876,750.571 1667.126,666.624 1638.251,550.941 L1629.501,516.134 C1619.876,479.279 1596.251,408.641 1552.501,392.261 C1528.876,383.047 1515.751,389.190 1492.126,395.332 L1490.376,431.163 L1490.376,620.556 C1490.376,640.007 1485.126,711.669 1505.251,726.001 C1514.876,733.167 1523.626,731.120 1555.126,731.120 C1563.001,731.120 1574.376,731.120 1579.626,732.144 C1589.251,732.144 1599.751,733.167 1604.126,742.381 C1606.751,747.500 1605.876,755.690 1603.251,759.785 C1597.126,770.022 1572.626,767.975 1570.876,767.975 L1342.501,767.975 C1336.376,767.975 1325.876,767.975 1318.876,767.975 L1305.751,767.975 C1297.876,767.975 1281.251,771.046 1277.751,762.856 C1274.251,753.642 1276.876,747.500 1287.376,743.405 C1295.251,740.334 1301.376,742.381 1308.376,741.357 C1327.626,740.334 1337.251,740.334 1348.626,735.215 C1391.501,713.716 1389.751,653.315 1389.751,614.413 L1389.751,202.869 C1389.751,177.275 1397.626,113.803 1365.251,92.304 C1360.001,89.233 1343.376,85.138 1315.376,86.162 C1307.501,86.162 1299.626,85.138 1290.876,84.115 C1281.251,83.091 1276.001,71.830 1283.001,62.616 C1289.126,54.426 1301.376,55.450 1309.251,55.450 L1358.251,55.450 C1365.251,55.450 1375.751,55.450 1384.501,55.450 L1411.626,55.450 C1414.251,56.473 1441.376,58.521 1466.751,58.521 L1512.251,58.521 C1568.251,58.521 1694.251,50.331 1745.001,132.230 C1763.376,161.919 1771.251,254.056 1758.126,288.863 C1731.876,358.478 1702.126,378.952 1643.501,386.119 C1696.001,418.878 1729.251,472.113 1749.376,531.490 L1760.751,564.250 C1784.376,631.817 1801.001,687.099 1862.251,704.503 C1900.751,715.764 1923.501,699.384 1961.126,678.909 C1961.126,678.909 1965.501,675.838 1966.376,678.909 ZM1657.501,266.341 C1669.751,224.367 1661.876,182.394 1635.626,141.444 C1589.251,71.830 1550.751,82.067 1499.126,86.162 C1491.251,130.183 1490.376,149.634 1490.376,155.776 L1490.376,291.934 C1490.376,331.860 1490.376,313.433 1496.501,352.335 C1526.251,353.359 1558.626,354.383 1584.001,346.193 C1619.001,334.931 1647.001,304.219 1657.501,266.341 ZM1175.376,774.117 C1172.751,775.141 1165.751,776.165 1154.376,776.165 L1016.126,771.046 L996.876,767.975 L944.376,767.975 C933.001,767.975 919.001,773.093 912.876,772.070 C900.626,772.070 889.251,774.117 889.251,753.642 C890.126,746.476 898.876,744.429 909.376,744.429 L930.376,744.429 C954.876,744.429 947.001,740.334 973.251,734.191 C973.251,683.004 938.251,542.751 925.126,528.419 C916.376,520.229 856.876,525.348 849.001,525.348 L836.751,525.348 C828.876,525.348 817.501,523.300 808.751,523.300 L749.251,523.300 C716.876,580.630 697.626,665.600 692.376,722.930 C699.376,735.215 715.126,736.239 722.126,737.262 C722.126,737.262 744.001,738.286 749.251,740.334 C754.501,740.334 757.126,740.334 763.251,741.357 C769.376,740.334 789.501,742.381 791.251,753.642 C792.126,761.832 786.001,765.927 778.126,767.975 C772.876,768.998 760.626,767.975 755.376,767.975 L576.001,767.975 C572.501,767.975 561.126,768.998 556.751,768.998 C548.876,768.998 546.251,772.070 537.501,763.880 C532.251,758.761 534.001,750.571 540.126,745.452 C547.126,739.310 551.501,742.381 557.626,741.357 C563.751,741.357 569.876,740.334 576.001,740.334 C577.751,740.334 585.626,739.310 594.376,737.262 C622.376,732.144 618.876,734.191 639.001,702.455 C661.751,667.648 657.376,672.767 667.001,643.078 L799.126,220.272 C800.876,215.154 816.626,159.871 816.626,152.705 C816.626,148.610 805.251,95.376 807.001,86.162 C807.001,80.020 806.126,71.830 814.876,67.735 C821.001,64.663 824.501,81.043 833.251,72.853 C833.251,72.853 840.251,63.640 846.376,60.568 C851.626,57.497 860.376,56.473 865.626,58.521 C868.251,53.402 871.751,47.260 875.251,46.236 C884.001,43.165 888.376,45.212 893.626,61.592 C893.626,61.592 899.751,77.972 902.376,87.186 C915.501,127.112 931.251,191.607 931.251,191.607 C932.126,195.702 945.251,233.581 948.751,244.842 C950.501,252.008 949.626,256.103 952.251,265.317 L1056.376,624.651 C1067.751,663.553 1085.251,726.001 1133.376,743.405 C1147.376,748.524 1168.376,748.524 1189.376,748.524 C1189.376,748.524 1193.751,749.547 1195.501,755.690 C1196.376,759.785 1194.626,764.903 1194.626,764.903 C1191.126,772.070 1184.126,773.093 1175.376,774.117 ZM834.126,222.320 C827.126,233.581 824.501,242.795 821.001,256.103 L758.001,485.422 C767.626,489.517 782.501,488.493 790.376,488.493 L912.001,488.493 L834.126,222.320 ZM421.126,453.686 C371.251,469.042 275.001,445.496 261.001,457.781 C247.001,470.066 253.126,547.870 253.126,560.155 L253.126,643.078 C253.126,663.553 250.501,711.669 275.001,728.049 C282.001,734.191 298.626,736.239 320.501,737.262 C332.751,738.286 337.126,738.286 342.376,739.310 C352.001,739.310 359.001,741.357 362.501,749.547 C364.251,753.642 364.251,759.785 360.751,763.880 C354.626,771.046 342.376,767.975 333.626,767.975 L314.376,767.975 C310.876,767.975 289.876,767.975 284.626,767.975 L55.376,767.975 C49.251,767.975 43.126,770.022 35.251,767.975 C31.751,766.951 28.251,765.927 27.376,761.832 C26.501,757.737 26.501,753.642 29.126,749.547 C33.501,742.381 45.751,744.429 51.876,741.357 C58.876,741.357 68.501,740.334 76.376,740.334 C100.001,739.310 118.376,738.286 128.876,728.049 C153.376,706.550 155.126,637.959 155.126,615.437 L155.126,212.082 C155.126,191.607 158.626,111.756 128.876,94.352 C125.376,91.281 111.376,89.233 79.876,89.233 C70.251,88.209 59.751,89.233 57.126,89.233 C49.251,92.304 35.251,88.209 35.251,77.972 C35.251,66.711 43.126,62.616 53.626,62.616 C59.751,60.568 70.251,60.568 78.126,59.545 L91.251,59.545 C98.251,59.545 108.751,58.521 116.626,58.521 L320.501,58.521 C388.751,58.521 480.626,56.473 539.251,159.871 C572.501,219.249 585.626,287.839 562.001,351.311 C531.376,435.258 490.251,433.211 421.126,453.686 ZM432.501,156.800 C368.626,69.782 332.751,86.162 266.251,91.281 C262.751,114.827 261.876,111.756 261.001,136.325 L254.001,346.193 C254.001,351.311 255.751,396.356 257.501,418.878 C295.126,423.997 361.626,423.997 389.626,409.665 C429.001,389.190 457.001,336.979 463.126,303.195 C473.626,250.985 466.626,203.892 432.501,156.800 Z"/>
    <path fill-rule="evenodd" fill="#e5e5e590"
          d="M2793.610,1328.584 C2757.402,1363.977 2712.028,1387.572 2675.361,1372.021 C2675.361,1372.021 2673.070,1371.485 2673.986,1368.267 C2674.445,1367.195 2676.736,1367.195 2676.736,1367.195 C2700.111,1363.977 2750.985,1358.078 2788.110,1294.264 C2802.777,1268.524 2806.901,1246.001 2806.443,1212.217 C2776.652,1235.812 2748.235,1231.522 2731.277,1221.870 C2717.527,1213.826 2698.736,1188.085 2697.361,1165.563 C2695.528,1137.141 2701.486,1111.937 2732.652,1085.661 C2747.777,1072.791 2779.860,1068.501 2796.360,1077.081 C2832.568,1095.313 2847.693,1123.199 2852.276,1162.345 C2858.234,1212.753 2844.026,1279.785 2793.610,1328.584 ZM2789.485,1097.995 C2776.652,1085.125 2764.277,1084.052 2756.027,1087.270 C2740.444,1092.632 2733.569,1118.372 2732.652,1130.706 C2730.819,1150.011 2736.319,1181.114 2756.027,1199.347 C2767.027,1208.999 2782.152,1214.898 2794.068,1209.536 C2804.610,1204.709 2808.276,1195.057 2810.110,1184.332 C2812.860,1165.563 2809.651,1118.909 2789.485,1097.995 ZM2542.901,1228.305 L2490.194,1228.305 C2488.819,1228.305 2452.152,1228.305 2449.861,1225.623 C2448.944,1224.015 2447.111,1221.333 2448.027,1217.043 C2450.319,1213.289 2451.694,1211.681 2455.819,1211.681 C2458.111,1211.144 2479.652,1210.608 2482.860,1206.854 C2488.360,1200.419 2486.985,1156.983 2486.985,1150.011 L2486.985,1126.952 C2486.985,1115.691 2485.152,1109.256 2484.235,1097.995 L2451.694,1113.546 C2449.402,1115.155 2447.569,1116.227 2443.902,1116.227 L2441.153,1111.937 L2441.153,1109.256 L2468.194,1091.560 C2475.527,1086.733 2507.610,1065.283 2515.402,1071.182 C2522.277,1077.081 2520.443,1112.474 2520.443,1118.909 L2520.443,1170.389 C2520.443,1178.433 2519.527,1205.782 2527.777,1211.681 C2527.777,1212.217 2552.526,1217.043 2553.443,1217.043 L2553.901,1221.870 L2551.151,1226.160 C2548.401,1226.160 2545.651,1228.305 2542.901,1228.305 ZM2281.651,1214.362 L2278.901,1225.087 C2277.526,1227.768 2277.985,1231.522 2274.776,1234.740 C2272.943,1235.276 2267.901,1236.348 2265.151,1235.276 L2265.151,1228.841 L2262.401,1225.623 C2247.735,1224.551 2227.569,1226.160 2210.610,1228.305 L2198.235,1228.305 L2185.861,1229.913 C2178.986,1232.595 2180.819,1228.841 2173.944,1231.522 C2169.819,1232.058 2166.611,1234.203 2162.486,1229.913 C2157.444,1224.015 2158.819,1220.797 2158.819,1215.434 C2189.986,1195.593 2233.527,1179.505 2245.902,1122.126 C2248.193,1111.401 2248.193,1099.067 2241.318,1090.487 C2234.902,1082.979 2226.194,1080.834 2216.569,1082.979 C2210.152,1084.588 2203.735,1088.878 2202.360,1094.777 C2200.985,1100.140 2204.194,1103.357 2205.110,1108.720 C2206.485,1115.155 2206.485,1119.445 2205.110,1123.199 C2201.902,1132.851 2198.235,1136.069 2189.986,1137.677 C2183.111,1139.286 2177.611,1136.605 2173.486,1131.779 C2169.819,1126.952 2167.528,1121.054 2169.819,1111.937 C2173.486,1095.313 2189.527,1083.516 2206.485,1077.081 C2230.318,1067.964 2258.277,1070.646 2274.776,1086.733 C2285.776,1097.458 2288.068,1108.720 2286.693,1122.126 C2283.943,1152.156 2229.402,1190.230 2225.277,1192.912 L2233.068,1192.912 C2238.568,1192.912 2259.193,1192.375 2264.235,1191.303 C2265.151,1190.767 2269.735,1190.230 2271.568,1189.158 C2276.610,1184.868 2277.526,1183.259 2279.818,1181.650 C2283.943,1176.824 2290.359,1170.389 2295.859,1174.143 L2288.984,1192.912 C2286.235,1200.419 2283.485,1207.391 2281.651,1214.362 ZM1911.777,1189.158 C1915.444,1189.158 1919.111,1189.694 1922.319,1189.694 C1923.694,1189.694 1932.402,1191.303 1934.235,1191.303 L1942.944,1191.303 C1947.985,1191.303 1954.402,1191.303 1959.902,1191.303 L1980.985,1191.303 L1981.443,1187.549 C1987.401,1139.286 1980.985,1123.735 1986.943,1102.285 C1991.068,1096.922 1997.026,1088.342 2011.235,1076.008 C2014.443,1073.327 2015.359,1075.472 2015.359,1084.052 L2015.359,1301.235 C2015.359,1310.352 2016.734,1336.092 2008.943,1344.672 C2008.026,1345.208 1997.485,1350.571 1996.110,1351.643 C1992.443,1352.716 1986.943,1356.469 1983.276,1354.861 C1980.527,1351.643 1981.443,1346.817 1981.443,1341.454 L1981.443,1277.104 L1981.902,1262.089 L1981.902,1228.305 L1961.277,1228.305 C1958.068,1228.305 1954.860,1228.305 1951.652,1228.305 L1936.527,1228.305 C1935.152,1228.305 1922.319,1227.232 1920.027,1226.696 C1915.444,1226.696 1909.486,1226.696 1904.902,1226.696 C1903.069,1226.696 1874.194,1229.913 1871.903,1228.305 C1871.903,1228.305 1868.236,1229.913 1867.319,1226.160 C1866.861,1224.015 1868.236,1221.333 1868.236,1221.333 C1868.694,1218.652 1896.194,1181.650 1898.027,1178.969 L2009.401,1030.963 C2013.984,1025.064 2039.193,985.381 2046.526,987.526 C2049.276,988.062 2052.942,990.744 2054.317,997.179 C2056.151,1006.295 2028.651,1037.398 2021.318,1046.514 L1911.777,1189.158 Z"/>
</svg>